<?xml version="1.0" encoding="utf-8" standalone="no"?>
<!DOCTYPE svg PUBLIC "-//W3C//DTD SVG 1.1//EN"
  "http://www.w3.org/Graphics/SVG/1.1/DTD/svg11.dtd">
<svg xmlns:xlink="http://www.w3.org/1999/xlink" width="720pt" height="720pt" viewBox="0 0 720 720" xmlns="http://www.w3.org/2000/svg" version="1.1">
 <metadata>
  <rdf:RDF xmlns:dc="http://purl.org/dc/elements/1.1/" xmlns:cc="http://creativecommons.org/ns#" xmlns:rdf="http://www.w3.org/1999/02/22-rdf-syntax-ns#">
   <cc:Work>
    <dc:type rdf:resource="http://purl.org/dc/dcmitype/StillImage"/>
    <dc:date>2023-01-09T21:08:35.816543</dc:date>
    <dc:format>image/svg+xml</dc:format>
    <dc:creator>
     <cc:Agent>
      <dc:title>Matplotlib v3.6.2, https://matplotlib.org/</dc:title>
     </cc:Agent>
    </dc:creator>
   </cc:Work>
  </rdf:RDF>
 </metadata>
 <defs>
  <style type="text/css">*{stroke-linejoin: round; stroke-linecap: butt}</style>
 </defs>
 <g id="figure_1">
  <g id="patch_1">
   <path d="M 0 720 
L 720 720 
L 720 0 
L 0 0 
z
" style="fill: #ffffff"/>
  </g>
  <g id="axes_1">
   <g id="patch_2">
    <path d="M 226.178795 579.295268 
C 232.278976 579.295268 238.130131 576.887276 242.443611 572.601625 
C 246.75709 568.315975 249.180718 562.502569 249.180718 556.441744 
C 249.180718 550.380919 246.75709 544.567513 242.443611 540.281862 
C 238.130131 535.996212 232.278976 533.58822 226.178795 533.58822 
C 220.078613 533.58822 214.227459 535.996212 209.913979 540.281862 
C 205.600499 544.567513 203.176872 550.380919 203.176872 556.441744 
C 203.176872 562.502569 205.600499 568.315975 209.913979 572.601625 
C 214.227459 576.887276 220.078613 579.295268 226.178795 579.295268 
L 226.178795 579.295268 
z
" clip-path="url(#p30893456ef)" style="fill: none; stroke: #000000; stroke-width: 2; stroke-linejoin: miter"/>
   </g>
   <g id="patch_3">
    <path d="M 130.291507 313.384152 
C 138.127331 313.384152 145.643276 310.291031 151.184041 304.786013 
C 156.724806 299.280995 159.838012 291.813541 159.838012 284.02827 
C 159.838012 276.242999 156.724806 268.775544 151.184041 263.270526 
C 145.643276 257.765508 138.127331 254.672387 130.291507 254.672387 
C 122.455682 254.672387 114.939737 257.765508 109.398972 263.270526 
C 103.858208 268.775544 100.745001 276.242999 100.745001 284.02827 
C 100.745001 291.813541 103.858208 299.280995 109.398972 304.786013 
C 114.939737 310.291031 122.455682 313.384152 130.291507 313.384152 
L 130.291507 313.384152 
z
" clip-path="url(#p30893456ef)" style="fill: none; stroke: #000000; stroke-width: 2; stroke-linejoin: miter"/>
   </g>
   <g id="patch_4">
    <path d="M 155.102096 523.742023 
C 163.286348 523.742023 171.136496 520.511363 176.923636 514.761559 
C 182.710776 509.011756 185.962414 501.212254 185.962414 493.080803 
C 185.962414 484.949353 182.710776 477.149851 176.923636 471.400047 
C 171.136496 465.650243 163.286348 462.419584 155.102096 462.419584 
C 146.917844 462.419584 139.067696 465.650243 133.280556 471.400047 
C 127.493416 477.149851 124.241778 484.949353 124.241778 493.080803 
C 124.241778 501.212254 127.493416 509.011756 133.280556 514.761559 
C 139.067696 520.511363 146.917844 523.742023 155.102096 523.742023 
L 155.102096 523.742023 
z
" clip-path="url(#p30893456ef)" style="fill: none; stroke: #000000; stroke-width: 2; stroke-linejoin: miter"/>
   </g>
   <g id="patch_5">
    <path d="M 281.145788 578.86512 
C 289.879919 578.86512 298.257498 575.417401 304.433461 569.281283 
C 310.609424 563.145165 314.07953 554.821635 314.07953 546.143854 
C 314.07953 537.466073 310.609424 529.142543 304.433461 523.006425 
C 298.257498 516.870307 289.879919 513.422588 281.145788 513.422588 
C 272.411658 513.422588 264.034079 516.870307 257.858116 523.006425 
C 251.682153 529.142543 248.212047 537.466073 248.212047 546.143854 
C 248.212047 554.821635 251.682153 563.145165 257.858116 569.281283 
C 264.034079 575.417401 272.411658 578.86512 281.145788 578.86512 
L 281.145788 578.86512 
z
" clip-path="url(#p30893456ef)" style="fill: none; stroke: #000000; stroke-width: 2; stroke-linejoin: miter"/>
   </g>
   <g id="patch_6">
    <path d="M 308.584899 229.922393 
C 319.997293 229.922393 330.943801 225.417453 339.013583 217.399735 
C 347.083364 209.382017 351.617556 198.506131 351.617556 187.167365 
C 351.617556 175.828599 347.083364 164.952713 339.013583 156.934995 
C 330.943801 148.917277 319.997293 144.412337 308.584899 144.412337 
C 297.172504 144.412337 286.225996 148.917277 278.156215 156.934995 
C 270.086433 164.952713 265.552241 175.828599 265.552241 187.167365 
C 265.552241 198.506131 270.086433 209.382017 278.156215 217.399735 
C 286.225996 225.417453 297.172504 229.922393 308.584899 229.922393 
L 308.584899 229.922393 
z
" clip-path="url(#p30893456ef)" style="fill: none; stroke: #000000; stroke-width: 2; stroke-linejoin: miter"/>
   </g>
   <g id="patch_7">
    <path d="M 229.259333 533.65932 
C 240.752955 533.65932 251.777376 529.122316 259.904594 521.047532 
C 268.031812 512.972747 272.598277 502.019452 272.598277 490.599982 
C 272.598277 479.180512 268.031812 468.227217 259.904594 460.152432 
C 251.777376 452.077648 240.752955 447.540644 229.259333 447.540644 
C 217.765711 447.540644 206.74129 452.077648 198.614072 460.152432 
C 190.486854 468.227217 185.920389 479.180512 185.920389 490.599982 
C 185.920389 502.019452 190.486854 512.972747 198.614072 521.047532 
C 206.74129 529.122316 217.765711 533.65932 229.259333 533.65932 
L 229.259333 533.65932 
z
" clip-path="url(#p30893456ef)" style="fill: none; stroke: #000000; stroke-width: 2; stroke-linejoin: miter"/>
   </g>
   <g id="patch_8">
    <path d="M 219.415921 315.267249 
C 236.937358 315.267249 253.743521 308.35082 266.133047 296.041225 
C 278.522574 283.731631 285.483915 267.033895 285.483915 249.6255 
C 285.483915 232.217104 278.522574 215.519368 266.133047 203.209774 
C 253.743521 190.900179 236.937358 183.983751 219.415921 183.983751 
C 201.894484 183.983751 185.088321 190.900179 172.698794 203.209774 
C 160.309267 215.519368 153.347927 232.217104 153.347927 249.6255 
C 153.347927 267.033895 160.309267 283.731631 172.698794 296.041225 
C 185.088321 308.35082 201.894484 315.267249 219.415921 315.267249 
L 219.415921 315.267249 
z
" clip-path="url(#p30893456ef)" style="fill: none; stroke: #000000; stroke-width: 2; stroke-linejoin: miter"/>
   </g>
   <g id="patch_9">
    <path d="M 169.014201 463.2982 
C 189.969012 463.2982 210.068389 455.026477 224.885678 440.304784 
C 239.702967 425.58309 248.028401 405.613387 248.028401 384.793768 
C 248.028401 363.974149 239.702967 344.004445 224.885678 329.282752 
C 210.068389 314.561058 189.969012 306.289336 169.014201 306.289336 
C 148.05939 306.289336 127.960012 314.561058 113.142724 329.282752 
C 98.325435 344.004445 90 363.974149 90 384.793768 
C 90 405.613387 98.325435 425.58309 113.142724 440.304784 
C 127.960012 455.026477 148.05939 463.2982 169.014201 463.2982 
L 169.014201 463.2982 
z
" clip-path="url(#p30893456ef)" style="fill: none; stroke: #000000; stroke-width: 2; stroke-linejoin: miter"/>
   </g>
   <g id="patch_10">
    <path d="M 447.761399 583.238166 
C 500.731209 583.238166 551.538644 562.328812 588.993956 525.115147 
C 626.449268 487.901482 647.494397 437.421837 647.494397 384.793768 
C 647.494397 332.165698 626.449268 281.686053 588.993956 244.472389 
C 551.538644 207.258724 500.731209 186.34937 447.761399 186.34937 
C 394.791589 186.34937 343.984154 207.258724 306.528842 244.472389 
C 269.07353 281.686053 248.028401 332.165698 248.028401 384.793768 
C 248.028401 437.421837 269.07353 487.901482 306.528842 525.115147 
C 343.984154 562.328812 394.791589 583.238166 447.761399 583.238166 
L 447.761399 583.238166 
z
" clip-path="url(#p30893456ef)" style="fill: none; stroke: #000000; stroke-width: 2; stroke-linejoin: miter"/>
   </g>
  </g>
 </g>
 <defs>
  <clipPath id="p30893456ef">
   <rect x="90" y="86.4" width="558" height="554.4"/>
  </clipPath>
 </defs>
</svg>
